<?xml version="1.0" encoding="UTF-8"?>
<svg width="178px" height="131px" viewBox="0 0 178 131" version="1.1" xmlns="http://www.w3.org/2000/svg" xmlns:xlink="http://www.w3.org/1999/xlink">
    <!-- Generator: Sketch 57.1 (83088) - https://sketch.com -->
    <title>Group 10</title>
    <desc>Created with Sketch.</desc>
    <defs>
        <linearGradient x1="41.3499658%" y1="39.001836%" x2="52.5824549%" y2="73.6225393%" id="linearGradient-1">
            <stop stop-color="#1F0078" offset="0%"></stop>
            <stop stop-color="#041488" offset="100%"></stop>
        </linearGradient>
    </defs>
    <g id="3.0" stroke="none" stroke-width="1" fill="none" fill-rule="evenodd">
        <g id="Apple-TV-Copy-23" transform="translate(-219.000000, -717.000000)">
            <g id="Group-10" transform="translate(219.186000, 717.822000)">
                <path d="M8.34719192,84.3140438 C8.34719192,87.4670232 7.32168081,88.1436399 7.34694805,90.4843496 C7.35958167,91.6718493 6.5844579,93.5131607 6.5844579,94.549116 C6.5844579,97.6755437 5.81829144,97.8239915 6.90561807,98.6910205 C7.33110478,99.0303016 8.04041142,99.4796169 9.1905102,100.260467 C11.143307,101.58332 13.2422929,102.848423 14.5399463,104.89316 C15.8375996,106.937897 16.164269,109.54029 16.2671427,112.016353 C16.520193,117.878724 14.696107,115.709532 17.629097,124.257702 C23.363209,129.010873 27.6698881,131.658824 32.9687897,127.834642 C36.1416334,125.544464 38.2875441,121.707649 41.8231532,120.119504 C44.1838355,119.058334 46.8567487,119.152179 49.4303978,119.287532 C61.612818,119.928806 73.7651582,121.131947 85.8874184,122.896954 C90.9643292,123.636885 96.1386994,124.474271 101.161466,123.517774 C106.184233,122.561277 111.403626,123.035079 113.255354,117.976475 C113.540513,117.19684 115.670722,114.851553 116.309623,114.382329 C116.88716,113.963636 121.887049,114.357063 122.589117,114.382329 L158.620979,113.337401 C160.945565,113.416808 163.351368,113.481778 165.479231,112.525281 C167.54212,111.599465 169.128542,109.818215 170.655406,108.07306 C174.147699,104.091868 177.903494,99.1938834 176.876561,93.7905796 C176.055376,89.4592739 172.384407,86.4327741 168.744119,84.3140438 C165.103832,82.1953134 161.088145,80.4609864 158.413427,77.0735445 C154.343596,71.917486 154.504224,64.538024 154.251551,57.8479615 C154.021287,51.7901124 153.275617,45.7628676 152.022619,39.8315347 C150.919885,34.6177255 149.383997,29.3966975 146.512556,24.9932034 C143.641114,20.5897093 139.250029,17.0633046 134.283211,16.4172182 C127.796749,15.5726136 121.275996,19.6187749 114.930308,17.9006904 C109.570043,16.4569218 105.881026,11.3261293 101.439406,7.77084927 C93.5506119,1.45436185 83.1982619,0.131508918 73.4108152,0.0105933018 C63.033198,-0.121150579 52.3812507,0.929191043 43.1316354,5.80190991 C41.0127966,6.91722111 38.9408828,8.26714471 37.473578,10.2378888 C35.2247934,13.2607792 34.6797429,17.3213782 33.2088285,20.8550018 C27.2800506,35.0833409 7.99753542,38.151349 1.73847862,52.2280924 C-0.483233868,57.2217269 -0.461576232,63.0455283 1.15733206,68.2900176 C2.89896695,73.9333479 4.96184525,74.7416166 6.90561807,79.6612579 C8.34719192,82.0036568 8.34719192,81.1610643 8.34719192,84.3140438 Z" id="Path" fill="url(#linearGradient-1)" fill-rule="nonzero" opacity="0.441936384"></path>
                <path d="M15.066087,22.2615034 C15.066087,31.2532514 23.9872611,38.5425034 34.992087,38.5425034 C45.996913,38.5425034 54.918087,31.2532514 54.918087,22.2615034 C54.918087,21.5255006 54.8583157,20.8009045 54.7425229,20.0907788 C56.1015098,22.9591625 56.862087,26.1665118 56.862087,29.5515034 C56.862087,41.764176 46.9617597,51.6645034 34.749087,51.6645034 C22.5364144,51.6645034 12.636087,41.764176 12.636087,29.5515034 C12.636087,25.5130134 13.7186823,21.7273772 15.6094937,18.4689738 C15.2541896,19.6860785 15.066087,20.9558424 15.066087,22.2615034 Z" id="Combined-Shape" stroke="#FFE552" stroke-width="0.5" fill="#FFE552" transform="translate(34.749087, 35.066200) rotate(80.000000) translate(-34.749087, -35.066200) "></path>
                <circle id="Oval" stroke="#FFFFFF" stroke-width="0.5" fill="#FFFFFF" cx="89.424" cy="31.104" r="1"></circle>
                <circle id="Oval-Copy-4" stroke="#FFFFFF" stroke-width="0.5" fill="#FFFFFF" cx="119.799" cy="53.703" r="1.215"></circle>
                <circle id="Oval-Copy-8" stroke="#FFFFFF" stroke-width="0.5" fill="#FFFFFF" cx="131.463" cy="33.777" r="1.215"></circle>
                <circle id="Oval" stroke="#FFFFFF" stroke-width="0.5" fill="#FFFFFF" cx="73.143" cy="49.329" r="1"></circle>
                <circle id="Oval-Copy-5" stroke="#FFFFFF" stroke-width="0.5" fill="#FFFFFF" cx="96.471" cy="44.955" r="1"></circle>
                <circle id="Oval-Copy-14" stroke="#FFFFFF" stroke-width="0.5" fill="#FFFFFF" cx="123.201" cy="108.135" r="1"></circle>
                <circle id="Oval-Copy-10" stroke="#FFFFFF" stroke-width="0.5" fill="#FFFFFF" cx="61.722" cy="67.554" r="1"></circle>
                <circle id="Oval-Copy-2" stroke="#FFFFFF" stroke-width="0.5" fill="#FFFFFF" cx="23.085" cy="73.143" r="1"></circle>
                <circle id="Oval-Copy" stroke="#FFFFFF" stroke-width="0.5" fill="#FFFFFF" cx="84.564" cy="64.152" r="1"></circle>
                <circle id="Oval-Copy-16" stroke="#FFFFFF" stroke-width="0.5" fill="#FFFFFF" cx="51.03" cy="104.49" r="1"></circle>
                <circle id="Oval-Copy-13" stroke="#FFFFFF" stroke-width="0.5" fill="#FFFFFF" cx="154.062" cy="90.396" r="1"></circle>
                <circle id="Oval-Copy-6" stroke="#FFFFFF" stroke-width="0.5" fill="#FFFFFF" cx="76.059" cy="89.667" r="1"></circle>
                <circle id="Oval-Copy-11" stroke="#FFFFFF" stroke-width="0.5" fill="#FFFFFF" cx="35.721" cy="110.565" r="1"></circle>
                <circle id="Oval" stroke="#FFFFFF" stroke-width="0.5" fill="#FFFFFF" cx="60.993" cy="35.721" r="1"></circle>
                <circle id="Oval-Copy-3" stroke="#FFFFFF" stroke-width="0.5" fill="#FFFFFF" cx="70.227" cy="20.655" r="1.215"></circle>
                <circle id="Oval" stroke="#FFFFFF" stroke-width="0.5" fill="#FFFFFF" cx="106.191" cy="65.853" r="1.215"></circle>
                <circle id="Oval-Copy-7" stroke="#FFFFFF" stroke-width="0.5" fill="#FFFFFF" cx="129.033" cy="84.321" r="1.215"></circle>
                <circle id="Oval-Copy-9" stroke="#FFFFFF" stroke-width="0.5" fill="#FFFFFF" cx="100.845" cy="99.387" r="1"></circle>
                <circle id="Oval" stroke="#FFFFFF" stroke-width="0.5" fill="#FFFFFF" cx="51.273" cy="88.695" r="1.215"></circle>
                <circle id="Oval-Copy-15" stroke="#FFFFFF" stroke-width="0.5" fill="#FFFFFF" cx="67.797" cy="110.079" r="1.215"></circle>
                <circle id="Oval-Copy-12" stroke="#FFFFFF" stroke-width="0.5" fill="#FFFFFF" cx="13.365" cy="97.443" r="1.215"></circle>
            </g>
        </g>
    </g>
</svg>