<?xml version="1.0" encoding="UTF-8"?>
<svg width="185px" height="128px" viewBox="0 0 185 128" version="1.1" xmlns="http://www.w3.org/2000/svg" xmlns:xlink="http://www.w3.org/1999/xlink">
    <!-- Generator: Sketch 57.1 (83088) - https://sketch.com -->
    <title>Group 7</title>
    <desc>Created with Sketch.</desc>
    <g id="3.0" stroke="none" stroke-width="1" fill="none" fill-rule="evenodd">
        <g id="Apple-TV-Copy-23" transform="translate(-208.000000, -373.000000)">
            <g id="Group-7" transform="translate(208.980000, 373.734000)">
                <circle id="Oval" stroke="#FFE552" stroke-width="0.5" fill="#FFE552" opacity="0.646995908" cx="22.113" cy="43.983" r="22.113"></circle>
                <g id="undraw_developer_activity_bv83" transform="translate(6.804000, 34.992000)" fill="#663399" fill-rule="nonzero" opacity="0.1">
                    <path d="M116.154,40.2656957 C116.155322,41.9700724 115.921272,43.6664569 115.458426,45.3066571 C115.011078,46.8878832 114.35298,48.4015859 113.501883,49.8069348 C113.501883,54.8987123 110.068033,59.2993904 105.083773,61.3930155 C103.001026,62.2590739 100.766834,62.7013046 98.5115344,62.694 L22.0499937,62.694 C17.9632859,62.694 14.1761008,61.5901821 11.0702029,59.7099848 C10.1813172,59.1743583 9.33810069,58.5662279 8.54913577,57.8917832 C5.09700996,54.9220878 2.95669196,50.818176 2.95669196,46.285376 C1.01925141,43.2990989 -0.00806939016,39.8129666 0,36.2522367 C0,28.7964921 4.40556947,22.3855275 10.7168677,19.5550683 C11.5549401,19.1793944 12.4209184,18.8694988 13.3069774,18.6281818 C13.6203763,18.5428107 13.9371596,18.4662477 14.2573273,18.3984929 C15.1108241,18.2165588 15.9765263,18.0976675 16.847437,18.0427799 C17.1621897,18.023131 17.4786345,18.0119514 17.7967716,18.0092412 L17.9714086,18.0092412 C18.3227131,18.0092412 18.6709717,18.0214371 19.0171996,18.0417635 L19.1309167,17.8486622 C19.2703555,17.6155855 19.4131788,17.3848802 19.5593864,17.1565463 C19.8233725,16.7405315 20.1002195,16.3306146 20.3899273,15.9267957 C20.6931729,15.5006176 21.0096177,15.081215 21.3392619,14.668588 L21.4235344,14.5669557 C21.6103553,14.333879 21.8012376,14.1035124 21.9961811,13.8758561 C22.6053798,13.1651077 23.2484229,12.475702 23.9253103,11.8076391 C31.246863,4.62426905 42.7170587,0 55.6117639,0 C65.645266,0 74.816752,2.7999695 81.8418281,7.4262712 C84.5031972,5.91871665 87.5096161,5.12768406 90.5675837,5.13039784 C100.49143,5.13039784 108.538945,13.2985847 108.538945,23.3744096 C108.537467,24.0119398 108.503579,24.6489818 108.437411,25.283064 C113.291951,28.7228779 116.1706,34.3121545 116.154,40.2656957 Z" id="Path"></path>
                </g>
                <g id="undraw_developer_activity_bv83" transform="translate(52.974000, 0.000000)" fill="#663399" fill-rule="nonzero" opacity="0.1">
                    <path d="M130.734,45.2598905 C130.735488,47.1756628 130.472059,49.0824515 129.951116,50.9260875 C129.447615,52.7034346 128.706911,54.4048834 127.748981,55.9845391 C127.748981,61.707855 123.884104,66.6543535 118.274204,69.0076531 C115.930025,69.9811296 113.41539,70.4782106 110.876999,70.47 L24.8177753,70.47 C20.2180917,70.47 15.9555277,69.2292745 12.4597682,67.1158744 C11.4593068,66.5138136 10.5102472,65.8302561 9.62224905,65.0721594 C5.736802,61.7341297 3.32782484,57.1212056 3.32782484,52.0261979 C1.14719092,48.6695298 -0.00908228433,44.751009 0,40.7486381 C0,32.3681501 4.95856982,25.162027 12.0620812,21.9805031 C13.0053509,21.5582341 13.9800295,21.2099018 14.9773093,20.938654 C15.3300469,20.8426942 15.6865938,20.756635 16.04695,20.6804765 C17.0075803,20.475977 17.9819481,20.3423395 18.9621781,20.280644 C19.3164394,20.2585581 19.6726054,20.2459919 20.030676,20.2429456 L20.2272339,20.2429456 C20.6226353,20.2429456 21.0146083,20.2566541 21.4042958,20.2795017 L21.532287,20.0624498 C21.6892286,19.8004643 21.8499794,19.5411444 22.0145396,19.2844901 C22.311662,18.8168765 22.6232596,18.3561172 22.9493324,17.9022122 C23.2906423,17.4231748 23.6468082,16.9517533 24.0178303,16.4879477 L24.112681,16.3737099 C24.3229522,16.1117244 24.5377946,15.8527853 24.7572081,15.5968925 C25.4428752,14.7979892 26.1666349,14.0230759 26.9284873,13.2721525 C35.1690634,5.1978218 48.0790325,0 62.59232,0 C73.8852576,0 84.2079762,3.14725254 92.1148609,8.3473591 C95.1102931,6.65282104 98.4940868,5.76367589 101.9359,5.76672625 C113.105417,5.76672625 122.16308,14.9480216 122.16308,26.2735612 C122.161417,26.9901649 122.123275,27.7062198 122.048802,28.4189479 C127.512698,32.2854054 130.752684,38.5679256 130.734,45.2598905 Z" id="Path"></path>
                </g>
                <g id="undraw_developer_activity_bv83" transform="translate(73.872000, 73.872000)" fill="#663399" fill-rule="nonzero" opacity="0.1">
                    <path d="M98.172,34.0229522 C98.1731177,35.4630845 97.9753011,36.8964635 97.5841091,38.2823692 C97.2060159,39.618444 96.6497991,40.8974641 95.9304619,42.0849294 C95.9304619,46.3872841 93.0282122,50.1056864 88.8155736,51.8747185 C87.0552603,52.6065043 85.1669472,52.9801721 83.2607948,52.974 L18.6363963,52.974 C15.1823588,52.974 11.9814744,52.0413167 9.35640584,50.4526228 C8.60513005,50.0000392 7.8924533,49.4861925 7.2256294,48.9163129 C4.3079331,46.4070354 2.4989614,42.9393891 2.4989614,39.1093488 C0.861459355,36.5860603 -0.00682015403,33.6404137 0,30.6317349 C0,24.3319197 3.7235357,18.9149031 9.05777104,16.5232748 C9.76609997,16.2058449 10.4980147,15.9439951 11.2469014,15.7400916 C11.5117825,15.6679563 11.779524,15.6032636 12.050126,15.5460134 C12.7714915,15.3922861 13.5031729,15.2918276 14.2392564,15.2454497 C14.5052816,15.2288471 14.7727371,15.2194008 15.0416229,15.2171108 L15.189224,15.2171108 C15.4861425,15.2171108 15.7804866,15.2274158 16.0731143,15.2445909 L16.1692267,15.0814278 C16.2870787,14.884487 16.4077913,14.6895499 16.5313643,14.4966167 C16.7544822,14.1451003 16.98847,13.7987364 17.2333277,13.457525 C17.4896273,13.0974211 17.7570828,12.7430422 18.0356942,12.3943883 L18.1069203,12.3085129 C18.2648191,12.1115721 18.4261506,11.9169214 18.5909146,11.7245606 C19.1058022,11.1240057 19.6492946,10.5414846 20.2213919,9.97699736 C26.4094825,3.90732811 36.1039575,0 47.0024113,0 C55.4826098,0 63.2342423,2.3658657 69.1717543,6.27491132 C71.4211123,5.00108616 73.9621023,4.33269429 76.5466607,4.33498732 C84.9341794,4.33498732 91.7358444,11.2367886 91.7358444,19.7504702 C91.7345956,20.2891585 91.7059537,20.8274342 91.6500298,21.3632091 C95.7530294,24.2697186 98.1860302,28.9924406 98.172,34.0229522 Z" id="Path"></path>
                </g>
            </g>
        </g>
    </g>
</svg>