<?xml version="1.0" encoding="UTF-8"?>
<svg width="182px" height="144px" viewBox="0 0 182 144" version="1.1" xmlns="http://www.w3.org/2000/svg" xmlns:xlink="http://www.w3.org/1999/xlink">
    <!-- Generator: Sketch 57.1 (83088) - https://sketch.com -->
    <title>Group 8</title>
    <desc>Created with Sketch.</desc>
    <defs>
        <linearGradient x1="50%" y1="23.1825477%" x2="60.6681942%" y2="62.4033124%" id="linearGradient-1">
            <stop stop-color="#38DCFC" offset="0%"></stop>
            <stop stop-color="#0033FB" offset="100%"></stop>
        </linearGradient>
        <linearGradient x1="49.9992642%" y1="99.9956055%" x2="49.9992642%" y2="0.0120726552%" id="linearGradient-2">
            <stop stop-color="#808080" stop-opacity="0.25" offset="0%"></stop>
            <stop stop-color="#808080" stop-opacity="0.12" offset="54%"></stop>
            <stop stop-color="#808080" stop-opacity="0.1" offset="100%"></stop>
        </linearGradient>
    </defs>
    <g id="3.0" stroke="none" stroke-width="1" fill="none" fill-rule="evenodd">
        <g id="Apple-TV-Copy-23" transform="translate(-533.000000, -712.000000)">
            <g id="Group-8" transform="translate(533.628000, 712.962000)">
                <path d="M11.7491919,84.3140438 C11.7491919,87.4670232 10.7236808,88.1436399 10.7489481,90.4843496 C10.7615817,91.6718493 9.9864579,93.5131607 9.9864579,94.549116 C9.9864579,97.6755437 9.22029144,97.8239915 10.3076181,98.6910205 C10.7331048,99.0303016 11.4424114,99.4796169 12.5925102,100.260467 C14.545307,101.58332 16.6442929,102.848423 17.9419463,104.89316 C19.2395996,106.937897 19.566269,109.54029 19.6691427,112.016353 C19.922193,117.878724 18.098107,115.709532 21.031097,124.257702 C26.765209,129.010873 31.0718881,131.658824 36.3707897,127.834642 C39.5436334,125.544464 41.6895441,121.707649 45.2251532,120.119504 C47.5858355,119.058334 50.2587487,119.152179 52.8323978,119.287532 C65.014818,119.928806 77.1671582,121.131947 89.2894184,122.896954 C94.3663292,123.636885 99.5406994,124.474271 104.563466,123.517774 C109.586233,122.561277 114.805626,123.035079 116.657354,117.976475 C116.942513,117.19684 119.072722,114.851553 119.711623,114.382329 C120.28916,113.963636 125.289049,114.357063 125.991117,114.382329 L162.022979,113.337401 C164.347565,113.416808 166.753368,113.481778 168.881231,112.525281 C170.94412,111.599465 172.530542,109.818215 174.057406,108.07306 C177.549699,104.091868 181.305494,99.1938834 180.278561,93.7905796 C179.457376,89.4592739 175.786407,86.4327741 172.146119,84.3140438 C168.505832,82.1953134 164.490145,80.4609864 161.815427,77.0735445 C157.745596,71.917486 157.906224,64.538024 157.653551,57.8479615 C157.423287,51.7901124 156.677617,45.7628676 155.424619,39.8315347 C154.321885,34.6177255 152.785997,29.3966975 149.914556,24.9932034 C147.043114,20.5897093 142.652029,17.0633046 137.685211,16.4172182 C131.198749,15.5726136 124.677996,19.6187749 118.332308,17.9006904 C112.972043,16.4569218 109.283026,11.3261293 104.841406,7.77084927 C96.9526119,1.45436185 86.6002619,0.131508918 76.8128152,0.0105933018 C66.435198,-0.121150579 55.7832507,0.929191043 46.5336354,5.80190991 C44.4147966,6.91722111 42.3428828,8.26714471 40.875578,10.2378888 C38.6267934,13.2607792 38.0817429,17.3213782 36.6108285,20.8550018 C30.6820506,35.0833409 11.3995354,38.151349 5.14047862,52.2280924 C2.91876613,57.2217269 2.94042377,63.0455283 4.55933206,68.2900176 C6.30096695,73.9333479 8.36384525,74.7416166 10.3076181,79.6612579 C11.7491919,82.0036568 11.7491919,81.1610643 11.7491919,84.3140438 Z" id="Path-Copy" fill="url(#linearGradient-1)" fill-rule="nonzero" opacity="0.1"></path>
                <g id="undraw_developer_activity_bv83" transform="translate(15.552000, 64.638000)" fill="#FFFFFF" fill-rule="nonzero" opacity="0.735602679">
                    <path d="M32.562,11.2369383 C32.5623707,11.7125784 32.4967583,12.185988 32.3670065,12.6437183 C32.2415993,13.0849907 32.0571116,13.5074193 31.8185195,13.8996097 C31.8185195,15.3205709 30.8558922,16.5486671 29.4586309,17.1329346 C28.8747645,17.3746253 28.2484429,17.4980385 27.6162042,17.496 L6.18137898,17.496 C5.03573287,17.496 3.97405337,17.1879578 3.10336233,16.6632516 C2.8541768,16.5137744 2.61779392,16.3440636 2.39661965,16.1558465 C1.4288689,15.3270943 0.828863435,14.1818166 0.828863435,12.9168491 C0.285731568,12.0834695 -0.0022621303,11.1105953 0,10.1169033 C0,8.03623036 1.23503412,6.24712395 3.0043102,5.45722836 C3.23925098,5.35238914 3.48201479,5.26590665 3.73040789,5.19856238 C3.81826448,5.17473788 3.90706984,5.15337146 3.99682398,5.13446313 C4.23608877,5.08369084 4.47877517,5.05051187 4.72292168,5.03519438 C4.81115777,5.02971097 4.89986826,5.02659109 4.98905313,5.02583476 L5.03800993,5.02583476 C5.13649281,5.02583476 5.23412178,5.02923826 5.33118149,5.03491076 L5.36306033,4.98102201 C5.40214987,4.91597735 5.44218819,4.85159448 5.48317528,4.78787339 C5.55717975,4.67177623 5.63478956,4.55738082 5.71600473,4.44468716 C5.80101499,4.32575375 5.88972547,4.20871117 5.98213618,4.09355943 L6.00576069,4.06519693 C6.05813308,4.00015227 6.111644,3.93586394 6.16629346,3.87233194 C6.337073,3.67398353 6.5173403,3.48159125 6.70709535,3.29515509 C8.75958084,1.29049369 11.975075,0 15.5899087,0 C18.4026478,0 20.9737338,0.781386837 22.9431066,2.07244778 C23.6891808,1.65173488 24.5319844,1.4309816 25.389239,1.43173893 C28.1712377,1.43173893 30.4272355,3.71123295 30.4272355,6.52309106 C30.4268213,6.70100647 30.4173213,6.87878561 30.3987722,7.05573879 C31.7596682,8.01568686 32.5666536,9.57548497 32.562,11.2369383 Z" id="Path"></path>
                </g>
                <g id="undraw_developer_activity_bv83-copy" transform="translate(59.778000, 18.468000)" fill="#FFFFFF" fill-rule="nonzero" opacity="0.735602679">
                    <path d="M25.758,8.73984093 C25.7582933,9.10978317 25.7063909,9.47799063 25.6037514,9.8340031 C25.5045487,10.177215 25.3586106,10.5057706 25.1698737,10.8108075 C25.1698737,11.9159996 24.4083923,12.8711855 23.3030961,13.3256158 C22.8412317,13.5135974 22.3457832,13.6095855 21.8456541,13.608 L4.88974755,13.608 C3.98349018,13.608 3.14365416,13.3684116 2.45489856,12.9603068 C2.25778165,12.8440468 2.0707922,12.7120495 1.89583346,12.5656584 C1.13029928,11.9210733 0.655668091,11.0303018 0.655668091,10.0464382 C0.226026464,9.39825402 -0.00178944635,8.64157415 0,7.86870254 C0,6.25040139 0.976967287,4.85887418 2.37654389,4.24451095 C2.56239257,4.16296933 2.75442961,4.09570517 2.95091968,4.04332629 C3.02041817,4.02479613 3.09066719,4.0081778 3.16166673,3.99347132 C3.35093589,3.95398176 3.5429117,3.9281759 3.73604252,3.9162623 C3.80584122,3.91199742 3.87601519,3.90957085 3.94656442,3.90898259 L3.98529144,3.90898259 C4.0631958,3.90898259 4.14042469,3.91162976 4.21720326,3.9160417 L4.24242086,3.87412823 C4.27334244,3.82353794 4.30501454,3.77346237 4.33743716,3.72390153 C4.39597801,3.63360374 4.45737085,3.54462953 4.52161568,3.4569789 C4.5888626,3.36447514 4.65903657,3.27344202 4.73213758,3.18387956 L4.75082562,3.16181983 C4.79225453,3.11122954 4.83458406,3.06122751 4.87781423,3.01181373 C5.01290849,2.85754275 5.155508,2.7079043 5.30561274,2.5628984 C6.92922066,1.00371731 9.47282054,0 12.3323158,0 C14.5573184,0 16.5911626,0.607745318 18.1490246,1.61190383 C18.7392027,1.28468268 19.4058981,1.11298569 20.0840248,1.11357472 C22.2847104,1.11357472 24.0693057,2.88651451 24.0693057,5.07351527 C24.0689781,5.21189392 24.0614631,5.35016658 24.04679,5.48779683 C25.1233196,6.23442312 25.7616812,7.44759942 25.758,8.73984093 Z" id="Path"></path>
                </g>
                <g id="undraw_Ride_a_bicycle_2yok" transform="translate(48.114000, 44.226000)">
                    <path d="M26.2197869,14.4363686 C25.5349271,15.2680418 25.2712311,16.4373867 24.9762915,17.5366959 C22.6017774,26.3962033 16.750475,33.5223287 10.0868388,38.6124183 C7.26491639,40.7685153 3.82936954,43.6599863 4.44674318,47.525703 C4.77917514,49.6017592 6.23762664,51.1300367 7.32115488,52.820897 C9.59443961,56.3614482 10.3317887,61.1738966 9.24826047,65.4123029 C8.01601267,70.2347564 4.5717176,74.7345457 5.63774942,79.6107765 C6.29511488,82.6123035 8.52715805,84.7483903 10.6729689,86.5843243 C14.0206171,89.4466138 17.4749101,92.127978 21.0358479,94.6284168 C23.4228594,96.3042694 25.9623396,97.9350991 28.7442703,98.1477072 C31.1937689,98.3353027 33.5932778,97.4035786 35.9190518,96.484361 C37.9511359,95.6802019 40.0344595,94.8435262 41.6753737,93.2327067 C42.7464045,92.1809216 43.5999798,90.8239812 44.7897363,89.9635435 C47.5841644,87.9425153 51.1734298,89.2231668 54.3777739,90.0886071 C61.9387264,92.1196404 70.0308203,91.3780131 77.2255977,87.995042 C88.2620889,82.8049015 96.6741172,71.9056064 107.469408,66.0576312 C112.110958,63.5426017 117.159924,61.9818076 121.457795,58.7426597 C123.879148,56.8983913 125.959996,54.6450697 127.606536,52.0842722 C130.855871,47.0679701 132.613012,40.6722163 132.105616,34.4115311 C131.598219,28.150846 128.755051,22.1177766 124.289715,18.5834785 C119.509444,14.8003038 113.471929,14.0936943 108.033042,11.8225388 C102.416692,9.4763452 97.4202145,5.44429387 91.857603,2.92676307 C82.7411085,-1.18771529 72.2538566,-0.953702002 63.3296918,3.56333693 C57.2759308,6.62739578 51.1396867,13.7760327 44.3973166,14.3188088 C39.5932998,14.6939997 29.9715191,9.88155135 26.2197869,14.4363686 Z" id="Path" fill="#663399" fill-rule="nonzero" opacity="0.1"></path>
                    <path d="M104.838735,56.376 C104.838735,56.376 107.036028,60.5786726 105.245548,62.8776018 C103.455069,65.1765309 105.408776,71.442 105.408776,71.442" id="Path" stroke="#663399" stroke-width="0.5"></path>
                    <path d="M105.948,54.432 C105.948,55.23633 105.462,55.89 105.462,55.89 C105.462,55.89 104.976,55.237545 104.976,54.432 C104.976,53.626455 105.462,52.974 105.462,52.974 C105.462,52.974 105.948,53.62767 105.948,54.432 Z" id="Path" fill="#663399" fill-rule="nonzero"></path>
                    <path d="M106.085265,56.376 C106.085265,56.376 103.887972,60.5786726 105.678452,62.8776018 C107.468931,65.1765309 105.515224,71.442 105.515224,71.442" id="Path" stroke="#663399" stroke-width="0.5"></path>
                    <path d="M105.948,54.432 C105.948,55.23633 106.434,55.89 106.434,55.89 C106.434,55.89 106.92,55.237545 106.92,54.432 C106.92,53.626455 106.434,52.974 106.434,52.974 C106.434,52.974 105.948,53.62767 105.948,54.432 Z" id="Path" fill="#663399" fill-rule="nonzero"></path>
                    <path d="M105.948,54.432 C105.948,55.23633 106.434,55.89 106.434,55.89 C106.434,55.89 106.92,55.237545 106.92,54.432 C106.92,53.626455 106.434,52.974 106.434,52.974 C106.434,52.974 105.948,53.62767 105.948,54.432 Z" id="Path" fill="#000000" fill-rule="nonzero" opacity="0.1"></path>
                    <path d="M107.268735,56.376 C107.268735,56.376 109.466028,60.5786726 107.675548,62.8776018 C105.885069,65.1765309 107.838776,71.442 107.838776,71.442" id="Path" stroke="#663399" stroke-width="0.5"></path>
                    <path d="M107.406,54.432 C107.406,55.23633 106.92,55.89 106.92,55.89 C106.92,55.89 106.434,55.237545 106.434,54.432 C106.434,53.626455 106.92,52.974 106.92,52.974 C106.92,52.974 107.406,53.62767 107.406,54.432 Z" id="Path" fill="#663399" fill-rule="nonzero"></path>
                    <path d="M107.675156,58.0644771 C107.004458,58.7356468 105.948,58.806 105.948,58.806 C105.948,58.806 105.980147,57.7872855 106.650844,57.1175229 C107.321542,56.4477603 108.378,56.376 108.378,56.376 C108.378,56.376 108.345853,57.3933075 107.675156,58.0644771 Z" id="Path" fill="#663399" fill-rule="nonzero"></path>
                    <path d="M107.675156,60.9804771 C107.004458,61.6516468 105.948,61.722 105.948,61.722 C105.948,61.722 105.980147,60.7032855 106.650844,60.0335229 C107.321542,59.3637603 108.378,59.292 108.378,59.292 C108.378,59.292 108.351698,60.3079004 107.675156,60.9804771 Z" id="Path" fill="#663399" fill-rule="nonzero"></path>
                    <path d="M104.457811,62.9956367 C104.994471,63.6665367 104.975922,64.638 104.975922,64.638 C104.975922,64.638 104.086848,64.5212634 103.550189,63.8503633 C103.013529,63.1794633 103.032078,62.208 103.032078,62.208 C103.032078,62.208 103.921152,62.3247366 104.457811,62.9956367 Z" id="Path" fill="#663399" fill-rule="nonzero"></path>
                    <path d="M105.059391,56.2803965 C105.730406,56.8053456 105.948,57.8122154 105.948,57.8122154 C105.948,57.8122154 105.077625,57.9685527 104.406609,57.4436035 C103.735594,56.9186544 103.518,55.9117846 103.518,55.9117846 C103.518,55.9117846 104.390806,55.7554473 105.059391,56.2803965 Z" id="Path" fill="#663399" fill-rule="nonzero"></path>
                    <path d="M105.059391,56.2803965 C105.730406,56.8053456 105.948,57.8122154 105.948,57.8122154 C105.948,57.8122154 105.077625,57.9685527 104.406609,57.4436035 C103.735594,56.9186544 103.518,55.9117846 103.518,55.9117846 C103.518,55.9117846 104.390806,55.7554473 105.059391,56.2803965 Z" id="Path" fill="#000000" fill-rule="nonzero" opacity="0.1"></path>
                    <path d="M108.514682,56.376 C108.514682,56.376 106.318214,60.5776489 108.108486,62.8796877 C109.898757,65.1817266 107.945506,71.442 107.945506,71.442" id="Path" stroke="#663399" stroke-width="0.5"></path>
                    <path d="M107.892,54.432 C107.892,55.23633 108.378,55.89 108.378,55.89 C108.378,55.89 108.864,55.237545 108.864,54.432 C108.864,53.626455 108.378,52.974 108.378,52.974 C108.378,52.974 107.892,53.62767 107.892,54.432 Z" id="Path" fill="#663399" fill-rule="nonzero"></path>
                    <path d="M107.892,54.432 C107.892,55.23633 108.378,55.89 108.378,55.89 C108.378,55.89 108.864,55.237545 108.864,54.432 C108.864,53.626455 108.378,52.974 108.378,52.974 C108.378,52.974 107.892,53.62767 107.892,54.432 Z" id="Path" fill="#000000" fill-rule="nonzero" opacity="0.1"></path>
                    <path d="M108.125787,58.0757233 C107.456385,58.7452855 107.406,59.778 107.406,59.778 C107.406,59.778 108.446812,59.7198389 109.116213,59.0502767 C109.785615,58.3807145 109.836,57.348 109.836,57.348 C109.836,57.348 108.793749,57.4061611 108.125787,58.0757233 Z" id="Path" fill="#663399" fill-rule="nonzero"></path>
                    <path d="M108.125787,58.0757233 C107.456385,58.7452855 107.406,59.778 107.406,59.778 C107.406,59.778 108.446812,59.7198389 109.116213,59.0502767 C109.785615,58.3807145 109.836,57.348 109.836,57.348 C109.836,57.348 108.793749,57.4061611 108.125787,58.0757233 Z" id="Path" fill="#000000" fill-rule="nonzero" opacity="0.1"></path>
                    <path d="M109.097787,62.4497233 C108.428385,63.1192855 108.378,64.152 108.378,64.152 C108.378,64.152 109.418812,64.0938389 110.088213,63.4242767 C110.757615,62.7547145 110.808,61.722 110.808,61.722 C110.808,61.722 109.767188,61.777324 109.097787,62.4497233 Z" id="Path" fill="#663399" fill-rule="nonzero"></path>
                    <path d="M107.406,61.236 C107.406,61.236 108.820813,58.8631765 110.808,58.806" id="Path" stroke="#663399" stroke-width="0.5"></path>
                    <path d="M106.434,60.264 C106.434,60.264 105.019187,57.8911765 103.032,57.834" id="Path" stroke="#663399" stroke-width="0.5"></path>
                    <path d="M105.948,63.18 C105.948,63.18 107.362813,60.8071765 109.35,60.75" id="Path" stroke="#663399" stroke-width="0.5"></path>
                    <circle id="Oval" fill="#663399" fill-rule="nonzero" cx="110.808" cy="59.292" r="1"></circle>
                    <circle id="Oval" fill="#663399" fill-rule="nonzero" cx="103.032" cy="57.834" r="1"></circle>
                    <path d="M107.406,64.152 C107.406,64.152 105.991187,61.7791765 104.004,61.722" id="Path" stroke="#663399" stroke-width="0.5"></path>
                    <circle id="Oval" fill="#663399" fill-rule="nonzero" cx="104.004" cy="61.722" r="1"></circle>
                    <circle id="Oval" fill="#663399" fill-rule="nonzero" cx="109.35" cy="60.75" r="1"></circle>
                    <path d="M114.21,68.7356289 C114.21,68.7356289 111.115471,68.0985427 110.29002,67.2495125 C109.464568,66.4004823 105.750646,64.9193823 105.33853,65.9765942 C104.926414,67.0338061 99.7676466,70.6456333 103.275511,71.2827195 C106.783375,71.9198056 111.528807,72.1317497 112.560316,71.7066075 C113.591826,71.2814654 114.21,68.7356289 114.21,68.7356289 Z" id="Path" fill="#A8A8A8" fill-rule="nonzero"></path>
                    <path d="M103.27427,70.8277631 C106.782141,71.5020974 111.527582,71.726433 112.559094,71.2764343 C113.344311,70.9339575 113.890548,69.2852898 114.106361,68.526 L114.21,68.5498937 C114.21,68.5498937 113.590605,71.2459034 112.559094,71.6945747 C111.527582,72.1432459 106.782141,71.9189103 103.27427,71.2459034 C102.262267,71.0507713 101.972078,70.5941355 102.081814,70.0167035 C102.168383,70.3923661 102.524413,70.6830732 103.27427,70.8277631 Z" id="Path" fill="#000000" fill-rule="nonzero" opacity="0.2"></path>
                    <path d="M8.29031532,73.386 C8.29031532,73.386 9.3605591,74.7940773 7.79606192,76.9061932 C6.23156475,79.018309 4.94165279,80.8116874 5.46400327,82.134 C5.46400327,82.134 7.82415901,78.2003442 9.7449784,78.1453011 C11.6657978,78.0902581 10.4027058,75.7515698 8.29031532,73.386 Z" id="Path" fill="#663399" fill-rule="nonzero"></path>
                    <path d="M8.26280996,73.386 C8.35714048,73.5216587 8.43151629,73.6699254 8.48370213,73.8263442 C10.3800161,76.0331853 11.3888862,78.0928183 9.56749467,78.1453011 C7.87011279,78.1939438 5.83428794,81.2008288 5.346,81.9611905 C5.36211238,82.0198219 5.38151915,82.077515 5.40412952,82.134 C5.40412952,82.134 7.791315,78.2003442 9.73413262,78.1453011 C11.6769502,78.0902581 10.3993926,75.7515698 8.26280996,73.386 Z" id="Path" fill="#000000" fill-rule="nonzero" opacity="0.1"></path>
                    <path d="M10.692,75.5821268 C10.692,75.9790854 10.58751,76.302 10.449,76.302 C10.31049,76.302 10.206,75.9801138 10.206,75.5821268 C10.206,75.1841397 10.33722,75.3764487 10.46601,75.3764487 C10.5948,75.3764487 10.692,75.1861965 10.692,75.5821268 Z" id="Path" fill="#FFD037" fill-rule="nonzero"></path>
                    <path d="M11.4323912,75.8187175 C11.0525046,76.1611101 10.7219248,76.3739488 10.6939095,76.2795594 C10.6658943,76.1851701 10.9494085,75.8446283 11.3292951,75.5040864 C11.7091818,75.1635446 11.5590201,75.4115479 11.5881559,75.5040864 C11.6172918,75.596625 11.8122778,75.4763248 11.4323912,75.8187175 Z" id="Path" fill="#FFD037" fill-rule="nonzero"></path>
                    <path d="M2.88768468,73.386 C2.88768468,73.386 1.8174409,74.7942833 3.38193808,76.9067083 C4.94643525,79.0191333 6.23634721,80.8127742 5.71399673,82.134 C5.71399673,82.134 3.35384099,78.1997685 1.4330216,78.1447174 C-0.487797794,78.0896663 0.775294212,75.751916 2.88768468,73.386 Z" id="Path" fill="#663399" fill-rule="nonzero"></path>
                    <path d="M2.91848409,73.386 C2.82413475,73.5216785 2.74974409,73.6699669 2.69754785,73.8264086 C0.802147471,76.0335727 -0.208215919,78.0935071 1.60966297,78.1447174 C3.30738355,78.1933672 5.34361463,81.2006922 5.832,81.9611652 C5.81588441,82.0198052 5.79647376,82.0775068 5.77385888,82.134 C5.77385888,82.134 3.38619706,78.1997685 1.44299177,78.1447174 C-0.500213522,78.0896663 0.781475075,75.751916 2.91848409,73.386 Z" id="Path" fill="#000000" fill-rule="nonzero" opacity="0.1"></path>
                    <path d="M0.972,75.5821268 C0.972,75.9790854 1.07649,76.302 1.215,76.302 C1.35351,76.302 1.458,75.9801138 1.458,75.5821268 C1.458,75.1841397 1.32678,75.3764487 1.19799,75.3764487 C1.0692,75.3764487 0.972,75.1861965 0.972,75.5821268 Z" id="Path" fill="#FFD037" fill-rule="nonzero"></path>
                    <path d="M0.231608785,75.8187175 C0.61149541,76.1611101 0.942075216,76.3739488 0.970090454,76.2795594 C0.998105691,76.1851701 0.714591485,75.8446283 0.33470486,75.5040864 C-0.0451817651,75.1635446 0.10497991,75.4115479 0.0758440623,75.5040864 C0.046708215,75.596625 -0.14827784,75.4763248 0.231608785,75.8187175 Z" id="Path" fill="#FFD037" fill-rule="nonzero"></path>
                    <path d="M1.458,82.2055477 C1.458,82.2055477 4.33134342,82.1185282 5.19714813,81.5106001 C6.06295285,80.9026719 9.61201638,80.181135 9.83153344,81.1480187 C10.0510505,82.1149024 14.1495199,85.9957318 10.905818,86.0211125 C7.66211624,86.0464932 3.36865687,85.5231674 2.50530486,85.0083018 C1.64195284,84.4934363 1.458,82.2055477 1.458,82.2055477 Z" id="Path" fill="#A8A8A8" fill-rule="nonzero"></path>
                    <path d="M10.9645597,85.679054 C7.72048146,85.7048854 3.42652384,85.1722663 2.56184515,84.6445674 C1.90321754,84.2423354 1.6407477,82.7994664 1.55366658,82.134 L1.458,82.134 C1.458,82.134 1.6395212,84.4588272 2.5041999,84.9865261 C3.3688786,85.514225 7.66283621,86.0480742 10.9069144,86.0210127 C11.8439563,86.0136323 12.1665244,85.679054 12.1493535,85.1845669 C12.0193451,85.4871635 11.6612086,85.6729036 10.9645597,85.679054 Z" id="Path" fill="#000000" fill-rule="nonzero" opacity="0.2"></path>
                    <path d="M86.1328988,89.3925984 L85.506113,79.7013969 C85.6220564,79.6850931 85.7359373,79.6564739 85.8458309,79.616023 L91.023081,87.8885099 C89.5270836,88.752696 87.8553324,89.2668817 86.1328988,89.3925984 L86.1328988,89.3925984 Z M76.0278592,84.7623159 L83.9566987,79.0661141 L83.9717416,79.0862021 L80.7199772,88.4886387 C78.8538346,87.6849697 77.2345125,86.3989584 76.0278592,84.7623159 Z M90.6445025,68.0729596 L86.2933559,76.6894534 C86.0898709,76.5001537 85.8419308,76.3654122 85.5725523,76.2977375 L85.4672523,75.9725631 L85.7668559,66.757196 C87.4700855,66.8267945 89.1363931,67.2758584 90.6445025,68.0717041 L90.6445025,68.0729596 Z M85.2378488,75.2544173 L82.5877987,67.0647934 C83.4675043,66.8551705 84.3686872,66.7494073 85.2729488,66.7496625 L85.5136345,66.7496625 L85.2378488,75.2544173 Z M80.5269272,67.7678732 C80.5858451,67.7415077 80.6522843,67.7176532 80.7049344,67.6912877 L83.9742487,76.7610169 C83.8449962,76.8928268 83.7390262,77.0456584 83.6608559,77.2129967 L75.2794771,72.5550932 C75.594704,72.0025994 75.9557505,71.4776258 76.3588021,70.9857187 L77.2939664,69.9675085 C78.2379916,69.0543993 79.3315273,68.3103816 80.5269272,67.7678732 Z M75.1679092,72.7785721 L83.584388,77.4565636 C83.5464517,77.5948275 83.52706,77.7375336 83.5267237,77.8809225 C83.5267237,77.902266 83.5267237,77.9236095 83.5267237,77.944953 L73.8416306,77.774205 C73.8869364,76.028967 74.3394231,74.3185678 75.1628949,72.7798276 L75.1679092,72.7785721 Z M86.9176345,77.909799 L96.1965705,74.7045085 C97.1952931,77.8867516 96.7338884,81.3487008 94.9367311,84.157165 L86.6782024,78.9405642 C86.8403248,78.6848199 86.9272163,78.3884993 86.9289167,78.0855689 C86.9266094,78.0271471 86.9211694,77.9688917 86.9126202,77.9110545 L86.9176345,77.909799 Z M96.1213562,74.4609416 L86.8687452,77.6574436 C86.7760071,77.3877454 86.6496514,77.1308488 86.4926738,76.8928443 L90.8801739,68.1934875 C93.3390189,69.5632552 95.204334,71.7963996 96.1163419,74.4621971 L96.1213562,74.4609416 Z M74.3355378,50.0665842 L74.9861413,51.8669706 L63.7641696,55.3296385 L63.6475875,53.0082198 L70.0408019,51.1249703 C70.0540682,51.2686024 70.0451893,51.4134237 70.0144769,51.5543512 C70.1759904,51.384784 70.3215994,51.2007067 70.4494662,51.0044424 L74.2628306,49.8820257 L74.3355378,50.0665842 Z M31.2527938,89.3386119 L30.6260081,79.6712649 C30.752819,79.6693548 30.8789959,79.6529266 31.0020795,79.6223005 L36.1417225,87.8420564 C34.645448,88.7033859 32.9741915,89.2149761 31.2527938,89.3386119 Z M21.1477543,84.7108404 L29.0765938,79.0209161 L29.0916366,79.0410041 L25.8398722,88.4371632 C23.9737296,87.6334942 22.3544075,86.3474829 21.1477543,84.7108404 L21.1477543,84.7108404 Z M18.9577649,77.7227296 C19.0038436,75.9772882 19.4571921,74.2668773 20.2815364,72.7283521 L28.8409223,77.4854401 C28.7947383,77.6163109 28.7656646,77.7526191 28.7544259,77.8909665 L18.9577649,77.7227296 Z M35.7643975,68.0214841 L31.799351,75.8821671 L31.1926224,76.5099169 C31.0033871,76.4370756 30.8024132,76.3996276 30.5996831,76.399433 L30.5758652,76.399433 L30.8854974,66.706976 C32.5891793,66.7762215 34.2559713,67.2253005 35.7643975,68.0214841 L35.7643975,68.0214841 Z M39.5577047,71.2481181 C40.2818601,72.2058344 40.8481295,73.2735675 41.2349833,74.4107216 L32.8999867,77.2895822 L39.5577047,71.2481181 Z M32.4186153,77.7264961 L41.3189726,74.6542885 C41.4025441,74.9313354 41.4794298,75.2129858 41.5496298,75.4992397 C41.5646726,75.5645257 41.5784619,75.6247897 41.5922512,75.6938422 C37.5921047,76.5262384 33.861476,77.4452641 32.3007796,77.8382355 L32.4186153,77.7264961 Z M30.3176295,76.4031995 C30.0692034,76.4133069 29.8262516,76.4793953 29.6068545,76.5965464 L26.2360008,67.4703198 C27.5621548,66.9581884 28.9715224,66.6963988 30.3928438,66.6981784 C30.4730724,66.6981784 30.5533009,66.6981784 30.6335295,66.6981784 L30.3176295,76.4031995 Z M29.3812116,76.7421844 C29.2006706,76.8793677 29.0504336,77.0524914 28.9399545,77.2506617 L20.40564,72.5036177 C20.7202924,71.9498732 21.0809224,71.4236354 21.4837114,70.9304767 L22.4213829,69.9085 C23.4557917,68.9092039 24.6685918,68.1136235 25.9965687,67.5632267 L29.3812116,76.7421844 Z M41.6060405,80.2764158 C41.3301694,81.6377496 40.8039147,82.9358261 40.054119,84.1044341 L31.948526,78.9845067 C33.6019867,79.2481616 37.4930725,79.8382464 41.6060405,80.2764158 Z M45.2251013,74.7773275 C44.7226872,72.5728374 43.725532,70.5119145 42.3092941,68.7509294 L42.7066762,68.390601 L46.1615192,71.7691504 L46.1615192,74.8175035 C45.8656763,74.8685604 45.5677442,74.9212914 45.2677227,74.9756964 C45.2539335,74.9091549 45.2413977,74.843869 45.2263549,74.778583 L45.2251013,74.7773275 Z M46.1615192,68.360469 L46.0863049,68.28765 L46.1615192,68.3491695 L46.1615192,68.360469 Z M48.841655,63.9373439 L48.85043,63.9310664 L49.0397193,63.8055164 L49.1237085,63.7490189 L49.2164728,63.6874994 L49.3217728,63.618447 L49.4195514,63.555672 L49.5386407,63.4790865 L49.6376728,63.4163115 L49.7830871,63.3259155 L49.8720907,63.2706736 L50.0275336,63.1765111 C50.0890648,63.7460843 50.2308746,64.304051 50.4487336,64.8337706 L50.4976229,69.3322257 C49.7707613,68.514011 49.2084805,67.56293 48.841655,66.531206 L48.841655,63.9373439 Z M63.2088375,44.226 C63.5134553,44.4971879 63.7102661,44.6654249 63.7102661,44.6654249 C63.7102661,44.6654249 64.3558554,45.2479767 65.0904482,46.0012764 C64.4373375,46.0012764 63.8306089,46.0012764 63.2978411,46.0150869 L63.2088375,44.226 Z M63.4332268,48.7018561 C64.4799589,48.7382656 65.8413375,48.7746751 67.2904662,48.7847191 C67.3004947,48.8161066 67.3105233,48.8474941 67.3167912,48.8763705 C67.6127418,48.9679363 67.9021461,49.0795136 68.183009,49.2103334 L63.5372732,50.789752 L63.4332268,48.7018561 Z M48.841655,74.1947757 L48.841655,70.5751703 L50.526455,71.9737968 L50.526455,71.9737968 L50.5502729,74.1972867 C50.0112371,74.2500176 49.438355,74.3228366 48.8404014,74.4006776 L48.841655,74.1947757 Z M48.841655,55.3974355 C49.2778978,55.3421935 49.7066193,55.2718856 50.1215514,55.2040886 C50.1833871,55.5147448 50.2069629,55.8318217 50.1917514,56.1482243 L50.1917514,58.0628612 L50.2782479,58.0628612 C49.7819753,58.3778329 49.3024585,58.7185369 48.841655,59.0835824 L48.841655,55.398691 L48.841655,55.3974355 Z M37.9431047,69.5205506 L32.4010653,75.2544173 L35.9887868,68.142012 C36.6236638,68.4960005 37.2234829,68.9096673 37.7801404,69.3774237 C37.8365511,69.4238771 37.8892011,69.4791191 37.9431047,69.5205506 Z M18.9540021,78.0340935 C18.9540021,78.015261 18.9540021,77.9964285 18.9540021,77.977596 L28.7544259,78.1508549 C28.7701797,78.3780094 28.83384,78.5992377 28.941208,78.7999482 L21.00234,84.5036829 C19.668198,82.6110847 18.9525841,80.3508456 18.9540021,78.0340935 L18.9540021,78.0340935 Z M30.3940974,89.3725175 C28.915133,89.3741519 27.4497177,89.0902519 26.0780508,88.5363477 L29.2909545,79.2456506 C29.5878322,79.5115962 29.9707561,79.6609878 30.3690259,79.6662429 L30.9958117,89.3549334 C30.7964938,89.3662329 30.5959224,89.3725175 30.3940974,89.3725175 Z M36.3636047,87.7052069 L31.2502867,79.535671 C31.4467263,79.4519215 31.6250974,79.3308349 31.7755331,79.1791091 L39.9112119,84.3191245 C38.9866489,85.6911143 37.7763729,86.8462857 36.3636047,87.7052069 L36.3636047,87.7052069 Z M57.070098,73.2581729 C56.7735798,73.1742905 56.4668708,73.1320373 56.1587516,73.132623 L56.0559587,73.132623 L55.9531659,73.132623 C55.4320408,73.131129 54.9179238,73.2528658 54.4526408,73.4879294 C54.2345194,72.1395228 54.1242051,70.4219993 54.6118444,69.0999582 C54.9021689,68.301302 55.1203299,67.4781581 55.2637016,66.6404345 L56.3104337,60.7119654 L75.7871735,54.0929714 L76.0253521,54.7533642 L57.070098,73.2581729 Z M73.8341005,78.0855689 C73.8341005,78.0667364 73.8341005,78.047904 73.8341005,78.0290715 L83.5530487,78.2010749 C83.6247775,78.4240223 83.7127643,78.6413903 83.8162987,78.8514237 L75.8774307,84.5551584 C74.5450688,82.6619671 73.831222,80.4017766 73.8341005,78.0855689 L73.8341005,78.0855689 Z M85.2742023,89.423993 C83.795238,89.4256274 82.3298227,89.1417274 80.9581558,88.5878232 L84.1710594,79.2971261 C84.4679372,79.5630717 84.8508611,79.7124633 85.2491309,79.7177184 L85.8759166,89.4076644 C85.6761809,89.4185454 85.4756095,89.423993 85.2742023,89.423993 L85.2742023,89.423993 Z M91.2449632,87.7579379 L86.0815023,79.5093055 C86.2492912,79.4155377 86.3994633,79.2931759 86.5252666,79.1477216 L94.7988383,84.3718555 C93.8723769,85.7444395 92.6599285,86.8996434 91.2449632,87.7579379 L91.2449632,87.7579379 Z" id="Shape" fill="url(#linearGradient-2)" fill-rule="nonzero"></path>
                    <path d="M85.1872936,89.91 L84.4142362,77.6107843 L84.3981823,77.5844019 L83.6177153,77.8607888 L80.0253445,88.5155026 L74.3138578,84.3948256 L83.4139542,77.6849062 L83.4225986,77.6585238 L83.474465,77.6396793 L84.0610502,77.2062544 L74.5225586,71.765202 L72.1848625,74.3783142 L72.5553374,76.8281069 L83.5213919,77.0266029 L83.5213919,77.2778637 L72.3478715,77.0743425 L71.928,74.2966544 L75.1251976,70.7224697 L79.9067926,65.0477447 L79.9920018,65.2826736 L81.004633,64.152 L84.7760666,64.8391983 L84.7760666,64.6871855 L85.0230498,64.6947233 L85.0230498,64.8844252 L90.624629,65.904544 L85.3972293,76.539157 L84.6352861,77.1007249 L84.6352861,77.1635401 L84.6352861,77.2338931 L96.714,72.9524092 L95.2802625,84.4111576 L85.0304593,77.7690786 L84.6698638,77.5630447 L90.7135429,87.4740266 L85.1872936,89.91 Z M84.6933272,78.0580285 L85.4157531,89.538134 L90.3615918,87.3546778 L84.6933272,78.0580285 Z M74.7436086,84.3948256 L79.9043228,88.1172543 L83.2805832,78.0994865 L74.7436086,84.3948256 Z M84.9094375,77.4022378 L85.167535,77.5492254 L95.0900854,83.9815016 L96.4237947,73.31925 L84.9094375,77.4022378 Z M84.0326471,76.497699 L84.342611,77.0065021 L84.3969473,76.9663003 L84.7674222,65.0904591 L81.0947818,64.4195927 L80.0870903,65.5502663 L84.0326471,76.497699 Z M74.722615,71.591832 L83.9647267,76.8683086 L83.8041876,76.6007159 L79.9043228,65.7625817 L75.3104351,70.8983522 L74.722615,71.591832 Z M85.0181101,65.135686 L84.6476353,76.7803674 L85.2058173,76.3682997 L90.2578589,66.0892207 L85.0181101,65.135686 Z" id="Shape" fill="#535461" fill-rule="nonzero"></path>
                    <path d="M31.7291892,89.91 L30.9548583,77.6069592 L30.9388036,77.5805794 L30.1582978,77.8569393 L26.566983,88.5156386 L20.8552117,84.3966198 L29.9532915,77.6873548 L29.9619363,77.660975 L30.0138054,77.6421323 L30.6004197,77.2087497 L21.0614529,71.7682279 L18.7248753,74.3810853 L19.0953686,76.8306391 L30.0644395,77.0341405 L30.0644395,77.2853767 L18.8903623,77.0818753 L18.468,74.3006897 L21.6665919,70.7255974 L26.45213,65.0476574 L26.5373435,65.2825633 L27.5500251,64.152 L31.3117668,64.8378751 L31.3117668,64.6858771 L31.5587623,64.6934142 L31.5587623,64.8830976 L37.1606206,65.9031169 L31.9379004,76.5316679 L31.1759193,77.093181 L31.1759193,77.1559901 L31.1759193,77.2263362 L43.254,72.9452699 L41.820191,84.4029007 L31.5698771,77.7614695 L31.2092637,77.5554557 L37.2532439,87.4642148 L31.7291892,89.91 Z M31.2351982,78.0591845 L31.9576601,89.5381703 L36.9037453,87.354927 L31.2351982,78.0591845 Z M21.2837489,84.3941074 L26.4447202,88.1161729 L29.8211489,78.0993823 L21.2837489,84.3941074 Z M31.4500843,77.4022016 L31.7081946,77.5491748 L41.6312395,83.9808237 L42.9650152,73.319612 L31.4500843,77.4022016 Z M30.5732502,76.497751 L30.8832296,77.0065045 L30.9375686,76.9663067 L31.3080619,65.0916237 L27.6352386,64.4233352 L26.6274969,65.5538985 L30.5732502,76.497751 Z M21.2590493,71.5911064 L30.5016215,76.8670683 L30.3410744,76.5995017 L26.4410152,65.7624246 L21.8481336,70.896438 L21.2590493,71.5911064 Z M31.5587623,65.1355901 L31.1882691,76.7829042 L31.7464789,76.3708767 L36.7987722,66.0928003 L31.5587623,65.1355901 Z" id="Shape" fill="#535461" fill-rule="nonzero"></path>
                    <polygon id="Rectangle" fill="#663399" fill-rule="nonzero" transform="translate(44.934469, 67.570448) rotate(44.620000) translate(-44.934469, -67.570448) " points="41.1882148 66.3831317 48.6800243 66.3853385 48.6807231 68.7577634 41.1889136 68.7555566"></polygon>
                    <polygon id="Rectangle" fill="#000000" fill-rule="nonzero" opacity="0.1" transform="translate(44.934469, 67.570448) rotate(44.620000) translate(-44.934469, -67.570448) " points="41.1882148 66.3831317 48.6800243 66.3853385 48.6807231 68.7577634 41.1889136 68.7555566"></polygon>
                    <path d="M48.6,63.209557 C48.3765662,63.357082 48.2654805,63.4423187 48.2654805,63.4423187 C48.2654805,63.4423187 44.226,64.6443745 44.226,61.4753184 C44.226,61.4753184 44.4216623,61.3857106 44.7309351,61.236 C45.3663107,62.1316526 46.4933806,62.6774208 47.7075273,62.6773741 L48.1354597,62.6773741 L48.6,63.209557 Z" id="Path" fill="#000000" fill-rule="nonzero" opacity="0.1"></path>
                    <path d="M84.5719677,62.694009 C83.2573917,62.6925484 81.9486781,62.8692185 80.6815428,63.219207 C80.028016,63.3994245 79.3881165,63.6258422 78.766676,63.8967503 C71.9087332,66.8697642 68.4103053,74.5481477 70.6668595,81.6743062 C72.9234136,88.8004647 80.2037678,93.0653381 87.5228686,91.5486534 C94.8419695,90.0319688 99.8282387,83.2251713 99.0674442,75.7890572 C98.3066498,68.3529432 92.0453088,62.6970064 84.5707291,62.694009 L84.5719677,62.694009 Z M84.5224239,88.2214204 C79.3468014,88.2193567 74.8718619,84.6113381 73.772035,79.5536824 C72.672208,74.4960267 75.2446747,69.3553488 79.9520108,67.2039541 C80.5331515,66.9378983 81.1366196,66.7236072 81.7554041,66.5635705 C85.8846249,65.4916929 90.2613006,66.902951 92.9866998,70.1850994 C95.7120991,73.4672478 96.2951607,78.0289103 94.4829353,81.8911029 C92.6707098,85.7532955 88.7897233,88.2201299 84.5236625,88.2214204 L84.5224239,88.2214204 Z" id="Shape" fill="#535461" fill-rule="nonzero"></path>
                    <path d="M61.0786165,45.7369078 C61.0786165,45.7369078 75.5171041,45.2915692 75.8116419,46.9849693 C76.1061797,48.6783694 61.3731543,47.9647143 61.3731543,47.9647143 C61.3731543,47.9647143 60.1950032,46.8947883 61.0786165,45.7369078 Z" id="Path" fill="#535461" fill-rule="nonzero"></path>
                    <path d="M61.0786165,45.7369078 C61.0786165,45.7369078 75.5171041,45.2915692 75.8116419,46.9849693 C76.1061797,48.6783694 61.3731543,47.9647143 61.3731543,47.9647143 C61.3731543,47.9647143 60.1950032,46.8947883 61.0786165,45.7369078 Z" id="Path" fill="#000000" fill-rule="nonzero" opacity="0.05"></path>
                    <circle id="Oval" stroke="#C1272D" stroke-width="0.5" cx="51.0557" cy="86.5337" r="1"></circle>
                    <rect id="Rectangle" fill="#663399" fill-rule="nonzero" x="46.656" y="52.974" width="2.43" height="22.842"></rect>
                    <path d="M49.086,52.974 L49.086,54.7076697 C48.2779462,54.8196799 47.451209,54.8906197 46.656,54.918 L46.656,52.974 L49.086,52.974 Z" id="Path" fill="#000000" fill-rule="nonzero" opacity="0.1"></path>
                    <path d="M49.3124623,51.5473482 C48.9529713,51.5212346 48.5953386,51.4760604 48.2412748,51.4120415 C46.8524247,51.1622444 43.3507496,50.6383645 42.4088433,51.5276882 C41.2268433,52.6378973 41.6208433,54.5819197 44.7740747,54.8594719 C47.927306,55.1370242 53.3472687,54.3968848 54.432,53.2855193 C54.432,53.2808934 52.4706187,51.7751723 49.3124623,51.5473482 Z" id="Path" fill="#535461" fill-rule="nonzero"></path>
                    <polygon id="Path" fill="#663399" fill-rule="nonzero" points="48.6 59.5039633 75.8887816 51.03 76.788 53.1238898 48.7998263 62.694"></polygon>
                    <polygon id="Path" fill="#663399" fill-rule="nonzero" points="56.376 73.0291264 76.169282 53.46 77.274 55.073221 58.3845781 74.844"></polygon>
                    <path d="M81.648,66.4433586 C81.0440228,66.5994612 80.4549954,66.8084845 79.8877612,67.068 L78.732,63.8408875 C79.3385697,63.576639 79.9631566,63.3557873 80.6010448,63.18 L81.648,66.4433586 Z" id="Path" fill="#000000" fill-rule="nonzero" opacity="0.1"></path>
                    <polygon id="Path" fill="#663399" fill-rule="nonzero" points="85.05 75.9925013 83.6428824 76.788 73.8257243 49.6503069 73.386 48.4359284 75.6989496 47.142 76.2781293 48.9293862"></polygon>
                    <polygon id="Path" fill="#000000" fill-rule="nonzero" opacity="0.1" points="76.302 48.8735857 73.8293536 49.572 73.386 48.3955332 75.71804 47.142"></polygon>
                    <path d="M61.3784037,51.2920564 L75.0855319,46.656 C75.0855319,46.656 77.4869357,46.9517612 76.585628,48.9247346 L62.7797435,52.9680363 C62.7797435,52.9680363 60.679609,53.1652104 61.3784037,51.2920564 Z" id="Path" fill="#535461" fill-rule="nonzero"></path>
                    <path d="M45.8143141,74.0626979 C45.3172904,71.8544346 44.311082,69.7928691 42.8759491,68.0424427 C42.3432028,67.3919431 41.7556942,66.7882878 41.1198702,66.2381011 C36.0917399,61.8970969 28.7648839,61.5034537 23.3005561,65.2807392 C17.8362282,69.0580248 15.616004,76.0512078 17.9008494,82.2885422 C20.1856948,88.5258766 26.3979201,92.4303438 33.0093207,91.7844196 C39.6207213,91.1384954 44.9597013,86.1054923 45.9940116,79.5438812 C46.1110313,78.7927738 46.1699957,78.0337509 46.1699957,77.2735832 C46.170827,76.1934131 46.0515348,75.1164999 45.8143141,74.0626979 L45.8143141,74.0626979 Z M31.5388918,88.2334717 C26.9100049,88.2286116 22.7795505,85.3262245 21.2063877,80.9730291 C19.6332249,76.6198337 20.9540776,71.7475993 24.5105559,68.7849315 C28.0670342,65.8222637 33.0979,65.4032996 37.0954768,67.7368754 C41.0930536,70.0704512 43.2016894,74.6570821 42.3703173,79.2105241 C41.4112553,84.4383074 36.8541181,88.2345583 31.5388918,88.2334717 L31.5388918,88.2334717 Z" id="Shape" fill="#535461" fill-rule="nonzero"></path>
                    <path d="M46.17,77.0026931 C46.1698725,77.744448 46.1111823,78.4850858 45.9944503,79.218 C44.807653,79.1345632 43.5812958,79.0136404 42.3796635,78.8927175 C42.6466187,77.4548401 42.6133977,75.9789958 42.282,74.554005 C43.4527261,74.3121592 44.6481771,74.0811966 45.8151944,73.872 C46.0516499,74.8994881 46.1706477,75.9494954 46.17,77.0026931 L46.17,77.0026931 Z" id="Path" fill="#000000" fill-rule="nonzero" opacity="0.1"></path>
                    <path d="M49.086,73.386 L49.086,75.816 L46.656,75.816 L46.656,73.7595825 C47.4967496,73.6167757 48.3141451,73.4899633 49.086,73.386 Z" id="Path" fill="#000000" fill-rule="nonzero" opacity="0.1"></path>
                    <path d="M32.471513,77.3841192 C32.471513,77.3841192 53.4424344,71.7148109 55.1392724,73.8781674 C56.8361104,76.0415239 58.6340101,78.9302942 53.3463634,79.9610775 C48.0587168,80.9918608 32.076,78.2074574 32.076,78.2074574 L32.471513,77.3841192 Z" id="Path" fill="#663399" fill-rule="nonzero"></path>
                    <path d="M42.768,67.7556095 L40.3340117,69.984 C39.9029756,69.4304917 39.4156968,68.9232065 38.88,68.4702902 L41.1521782,66.096 C41.7372015,66.6020053 42.2777874,67.1572408 42.768,67.7556095 Z" id="Path" fill="#000000" fill-rule="nonzero" opacity="0.1"></path>
                    <polygon id="Path" fill="#663399" fill-rule="nonzero" points="31.59 75.7677596 47.6029616 59.292 48.114 63.1090642 32.4056224 77.274"></polygon>
                    <circle id="Oval" fill="#000000" fill-rule="nonzero" opacity="0.1" cx="31.347" cy="77.031" r="1.701"></circle>
                    <circle id="Oval" fill="#535461" fill-rule="nonzero" cx="31.347" cy="77.031" r="1.701"></circle>
                    <circle id="Oval" fill="#000000" fill-rule="nonzero" opacity="0.1" cx="84.321" cy="77.031" r="1.701"></circle>
                    <circle id="Oval" fill="#535461" fill-rule="nonzero" cx="84.321" cy="77.031" r="1.701"></circle>
                    <circle id="Oval" fill="#000000" fill-rule="nonzero" opacity="0.1" cx="56.133" cy="75.087" r="3.159"></circle>
                    <circle id="Oval" fill="#535461" fill-rule="nonzero" cx="56.133" cy="75.087" r="3.159"></circle>
                    <path d="M57.1996097,74.5669981 C57.6685815,74.5668655 58.0488658,74.9469349 58.0489983,75.4159067 C58.0489983,75.4160667 58.0489983,75.4162266 58.0489983,75.4163866 L58.047801,79.6536572 C58.0476684,80.1229718 57.6672469,80.5033933 57.1979323,80.503526 C56.7289605,80.5036585 56.3486763,80.1235892 56.3485438,79.6546174 C56.3485437,79.6544574 56.3485437,79.6542974 56.3485438,79.6541375 L56.349741,75.4168668 C56.3498737,74.9475522 56.7302952,74.5671307 57.1996097,74.5669981 Z" id="Rectangle" fill="#663399" fill-rule="nonzero" transform="translate(57.198771, 77.535262) rotate(-36.790000) translate(-57.198771, -77.535262) "></path>
                </g>
                <circle id="Oval-Copy-17" stroke="#FFE552" stroke-width="0.5" fill="#FFE552" cx="22.113" cy="22.113" r="22.113"></circle>
            </g>
        </g>
    </g>
</svg>