<?xml version="1.0" encoding="UTF-8"?>
<svg width="182px" height="131px" viewBox="0 0 182 131" version="1.1" xmlns="http://www.w3.org/2000/svg" xmlns:xlink="http://www.w3.org/1999/xlink">
    <!-- Generator: Sketch 57.1 (83088) - https://sketch.com -->
    <title>Group 9</title>
    <desc>Created with Sketch.</desc>
    <defs>
        <linearGradient x1="50%" y1="23.1825477%" x2="60.6681942%" y2="62.4033124%" id="linearGradient-1">
            <stop stop-color="#38DCFC" offset="0%"></stop>
            <stop stop-color="#0033FB" offset="100%"></stop>
        </linearGradient>
    </defs>
    <g id="3.0" stroke="none" stroke-width="1" fill="none" fill-rule="evenodd">
        <g id="Apple-TV-Copy-23" transform="translate(-533.000000, -391.000000)">
            <g id="Group-9" transform="translate(533.628000, 392.202000)">
                <path d="M11.7491919,84.3140438 C11.7491919,87.4670232 10.7236808,88.1436399 10.7489481,90.4843496 C10.7615817,91.6718493 9.9864579,93.5131607 9.9864579,94.549116 C9.9864579,97.6755437 9.22029144,97.8239915 10.3076181,98.6910205 C10.7331048,99.0303016 11.4424114,99.4796169 12.5925102,100.260467 C14.545307,101.58332 16.6442929,102.848423 17.9419463,104.89316 C19.2395996,106.937897 19.566269,109.54029 19.6691427,112.016353 C19.922193,117.878724 18.098107,115.709532 21.031097,124.257702 C26.765209,129.010873 31.0718881,131.658824 36.3707897,127.834642 C39.5436334,125.544464 41.6895441,121.707649 45.2251532,120.119504 C47.5858355,119.058334 50.2587487,119.152179 52.8323978,119.287532 C65.014818,119.928806 77.1671582,121.131947 89.2894184,122.896954 C94.3663292,123.636885 99.5406994,124.474271 104.563466,123.517774 C109.586233,122.561277 114.805626,123.035079 116.657354,117.976475 C116.942513,117.19684 119.072722,114.851553 119.711623,114.382329 C120.28916,113.963636 125.289049,114.357063 125.991117,114.382329 L162.022979,113.337401 C164.347565,113.416808 166.753368,113.481778 168.881231,112.525281 C170.94412,111.599465 172.530542,109.818215 174.057406,108.07306 C177.549699,104.091868 181.305494,99.1938834 180.278561,93.7905796 C179.457376,89.4592739 175.786407,86.4327741 172.146119,84.3140438 C168.505832,82.1953134 164.490145,80.4609864 161.815427,77.0735445 C157.745596,71.917486 157.906224,64.538024 157.653551,57.8479615 C157.423287,51.7901124 156.677617,45.7628676 155.424619,39.8315347 C154.321885,34.6177255 152.785997,29.3966975 149.914556,24.9932034 C147.043114,20.5897093 142.652029,17.0633046 137.685211,16.4172182 C131.198749,15.5726136 124.677996,19.6187749 118.332308,17.9006904 C112.972043,16.4569218 109.283026,11.3261293 104.841406,7.77084927 C96.9526119,1.45436185 86.6002619,0.131508918 76.8128152,0.0105933018 C66.435198,-0.121150579 55.7832507,0.929191043 46.5336354,5.80190991 C44.4147966,6.91722111 42.3428828,8.26714471 40.875578,10.2378888 C38.6267934,13.2607792 38.0817429,17.3213782 36.6108285,20.8550018 C30.6820506,35.0833409 11.3995354,38.151349 5.14047862,52.2280924 C2.91876613,57.2217269 2.94042377,63.0455283 4.55933206,68.2900176 C6.30096695,73.9333479 8.36384525,74.7416166 10.3076181,79.6612579 C11.7491919,82.0036568 11.7491919,81.1610643 11.7491919,84.3140438 Z" id="Path" fill="url(#linearGradient-1)" fill-rule="nonzero" opacity="0.1"></path>
                <circle id="Oval" stroke="#FFE552" stroke-width="0.5" fill="#FFE552" cx="22.113" cy="22.113" r="22.113"></circle>
                <g id="undraw_developer_activity_bv83" transform="translate(22.356000, 69.984000)" fill="#FFFFFF" fill-rule="nonzero" opacity="0.735602679">
                    <path d="M50.544,17.4796819 C50.5445755,18.2195663 50.4427293,18.9559813 50.2413235,19.6680062 C50.0466617,20.3544299 49.7602926,21.0115412 49.3899408,21.6216151 C49.3899408,23.8319992 47.8957132,25.742371 45.72683,26.6512315 C44.82053,27.0271949 43.8483293,27.219171 42.8669438,27.216 L9.59497633,27.216 C7.81665998,27.216 6.16867986,26.7368232 4.81715944,25.9206136 C4.43036399,25.6880935 4.0634413,25.4240989 3.72012603,25.1313167 C2.21794576,23.8421466 1.28659399,22.0606036 1.28659399,20.0928764 C0.443523628,18.796508 -0.00351136643,17.2831483 0,15.7374051 C0,12.5008028 1.91706788,9.71774837 4.66340687,8.4890219 C5.02809107,8.32593867 5.40491848,8.19141034 5.79048389,8.08665258 C5.9268583,8.04959225 6.06470543,8.01635561 6.20402528,7.98694264 C6.57542137,7.90796352 6.95212862,7.85635179 7.3311023,7.8325246 C7.4680658,7.82399484 7.60576566,7.8191417 7.74420188,7.81796518 L7.82019453,7.81796518 C7.97306346,7.81796518 8.12460694,7.82325951 8.27526678,7.8320834 L8.32475037,7.74825646 C8.38542667,7.64707587 8.4475757,7.54692474 8.51119745,7.44780306 C8.62607006,7.26720747 8.74653903,7.08925906 8.87260435,6.91395781 C9.00456058,6.72895028 9.14226044,6.54688405 9.28570392,6.36775911 L9.3223748,6.32363967 C9.40366926,6.22245908 9.48673099,6.12245501 9.57155999,6.02362746 C9.83665063,5.71508549 10.1164685,5.41580861 10.4110137,5.12579681 C13.5969613,2.00743463 18.5881762,0 24.1992613,0 C28.565304,0 32.5562436,1.21549064 35.6131804,3.22380765 C36.7712657,2.56936537 38.0794982,2.22597138 39.410162,2.22714945 C43.7284884,2.22714945 47.2303357,5.77302903 47.2303357,10.1470305 C47.2296928,10.4237878 47.2149465,10.7003332 47.1861539,10.9755937 C49.2985894,12.4688462 50.5512235,14.8951988 50.544,17.4796819 Z" id="Path"></path>
                </g>
                <g id="undraw_developer_activity_bv83" transform="translate(111.780000, 83.592000)" fill="#FFFFFF" fill-rule="nonzero" opacity="0.735602679">
                    <path d="M37.908,13.1097614 C37.9084316,13.6646748 37.832047,14.216986 37.6809926,14.7510046 C37.5349963,15.2658224 37.3202194,15.7586559 37.0424556,16.2162113 C37.0424556,17.8739994 35.9217849,19.3067783 34.2951225,19.9884236 C33.6153975,20.2703961 32.886247,20.4143782 32.1502079,20.412 L7.19623225,20.412 C5.86249499,20.412 4.6265099,20.0526174 3.61286958,19.4404602 C3.32277299,19.2660701 3.04758098,19.0680742 2.79009452,18.8484876 C1.66345932,17.88161 0.964945492,16.5454527 0.964945492,15.0696573 C0.332642721,14.097381 -0.00263352482,12.9623612 0,11.8030538 C0,9.37560209 1.43780091,7.28831127 3.49755515,6.36676642 C3.7710683,6.244454 4.05368886,6.14355776 4.34286292,6.06498944 C4.44514372,6.03719419 4.54852907,6.0122667 4.65301896,5.99020698 C4.93156603,5.93097264 5.21409646,5.89226384 5.49832673,5.87439345 C5.60104935,5.86799613 5.70432424,5.86435627 5.80815141,5.86347388 L5.86514589,5.86347388 C5.97979759,5.86347388 6.0934552,5.86744463 6.20645009,5.87406255 L6.24356278,5.81119235 C6.28907,5.7353069 6.33568177,5.66019355 6.38339809,5.58585229 C6.46955254,5.45040561 6.55990427,5.31694429 6.65445326,5.18546835 C6.75342043,5.04671271 6.85669533,4.91016303 6.96427794,4.77581933 L6.9917811,4.74272975 C7.05275194,4.66684431 7.11504824,4.59184126 7.17866999,4.5177206 C7.37748797,4.28631412 7.58735139,4.06185646 7.80826025,3.84434761 C10.197721,1.50557597 13.9411321,0 18.149446,0 C21.423978,0 24.4171827,0.911617977 26.7098853,2.41785574 C27.5784493,1.92702403 28.5596237,1.66947853 29.5576215,1.67036209 C32.7963663,1.67036209 35.4227518,4.32977177 35.4227518,7.6102729 C35.4222696,7.81784088 35.4112098,8.02524988 35.3896155,8.23169525 C36.9739421,9.35163467 37.9134176,11.1713991 37.908,13.1097614 Z" id="Path"></path>
                </g>
            </g>
        </g>
    </g>
</svg>